<?xml version="1.0" encoding="UTF-8" standalone="no"?>

<svg width="175px" height="38px" viewBox="0 0 171 38" version="1.1" xmlns="http://www.w3.org/2000/svg" xmlns:xlink="http://www.w3.org/1999/xlink">
    <!-- Generator: Sketch 49.2 (51160) - http://www.bohemiancoding.com/sketch -->
    <desc>Created with Sketch.</desc>
    <defs></defs>
    <g id="Page-1" stroke="none" stroke-width="1" fill="none" fill-rule="evenodd">
        <g id="下载-copy">
            <path d="M147.158203,34 L157.125,20.5703125 L148.335938,8.23046875 L152.396484,8.23046875 L157.072266,14.8398438 C158.044927,16.2109444 158.736326,17.2656213 159.146484,18.0039062 C159.720706,17.0664016 160.400387,16.0878957 161.185547,15.0683594 L166.371094,8.23046875 L170.080078,8.23046875 L161.027344,20.3769531 L170.783203,34 L166.564453,34 L160.078125,24.8066406 C159.714842,24.2792942 159.339846,23.7050812 158.953125,23.0839844 C158.378903,24.0214891 157.968751,24.6660139 157.722656,25.0175781 L151.253906,34 L147.158203,34 Z" id="X" fill="#B7B7B7"></path>
            <path d="M142.135441,26.1578077 C142.135441,26.1578077 142.420237,26.1505105 142.960937,26.1578077 C143.501637,26.1651049 143.648851,26.5708556 143.648851,26.5708556 C143.648851,26.5708556 144.733828,28.5665657 145.024677,29.0491434 C145.283608,29.4787133 144.973221,29.4708654 144.901816,29.4638436 C144.902504,29.4628798 144.887095,29.4621914 144.887095,29.4621914 C144.887095,29.4621914 144.893011,29.4630175 144.901816,29.4638436 C144.898652,29.4682495 144.594731,29.4783003 141.447528,29.4621914 C137.058641,28.8665762 136.9073,24.9186638 136.9073,24.9186638 L136.9073,17.8968483 L134.430812,17.8968483 L134.430812,15.2808779 C134.430812,14.9242798 134.84356,14.8678299 134.84356,14.8678299 L136.9073,14.8678299 L136.9073,12.2518594 C136.9073,11.8251809 137.320048,11.7011288 137.320048,11.7011288 C137.320048,11.7011288 138.772646,11.2858779 139.617816,11.0441072 C139.964662,10.9449756 140.071701,11.1503982 140.071701,11.1503982 C140.071701,11.1503982 140.209284,11.0774264 140.209284,11.3927196 L140.209284,15.0055125 L143.786433,15.0055125 C144.134655,15.0055125 144.199181,15.4185605 144.199181,15.4185605 L144.199181,18.034531 L140.209284,18.034531 L140.209284,24.0925678 C140.209284,25.8533913 142.135441,26.1578077 142.135441,26.1578077 Z M131.541576,29.1868261 L129.340253,29.1868261 C128.908381,29.1868261 128.927505,28.6360955 128.927505,28.6360955 L128.927505,18.4475789 C128.927505,17.8286954 128.102009,17.621483 128.102009,17.621483 L123.561781,17.621483 C122.884462,17.621483 122.873868,18.4475789 122.873868,18.4475789 L122.873868,28.7737781 C122.873868,29.1787028 122.46112,29.1868261 122.46112,29.1868261 L120.259797,29.1868261 C119.775782,29.1868261 119.847049,28.6360955 119.847049,28.6360955 L119.847049,15.8316085 C119.847049,14.803119 121.085293,14.5924646 121.085293,14.5924646 L130.71608,14.5924646 C131.677783,14.5924646 131.954324,15.8316085 131.954324,15.8316085 L131.954324,28.4984128 C131.954324,29.2186308 131.541576,29.1868261 131.541576,29.1868261 Z M115.857152,23.4041546 L107.327027,23.4041546 L107.327027,25.4693944 C107.327027,26.2135691 108.290106,26.433173 108.290106,26.433173 L115.169239,26.433173 C115.658758,26.433173 115.994735,26.846221 115.994735,26.846221 C115.994735,26.846221 116.595008,28.0951403 116.820231,28.6360955 C117.045454,29.1770506 116.407483,29.1868261 116.407483,29.1868261 L106.088783,29.1868261 C104.846136,29.1868261 104.575374,27.6723169 104.575374,27.6723169 L104.575374,15.9692911 C104.575374,15.2962983 105.538452,15.0055125 105.538452,15.0055125 L115.857152,15.0055125 C116.894113,15.0055125 117.095396,16.2446564 117.095396,16.2446564 L117.095396,22.1650107 C117.095396,23.1638983 115.857152,23.4041546 115.857152,23.4041546 Z M114.343743,18.4475789 C114.343743,18.4475789 114.257066,17.7591657 113.65583,17.7591657 L108.01494,17.7591657 C108.01494,17.7591657 107.327027,17.9437981 107.327027,18.4475789 L107.327027,19.9620882 C107.327027,19.9620882 107.346839,20.6505014 108.01494,20.6505014 L113.65583,20.6505014 C113.65583,20.6505014 114.343743,20.4804634 114.343743,19.8244055 L114.343743,18.4475789 Z M101.410972,29.1868261 L99.20965,29.1868261 C98.919213,29.1868261 98.796902,28.7737781 98.796902,28.7737781 L98.796902,18.4475789 C98.796902,17.8072169 97.971406,17.621483 97.971406,17.621483 L95.907666,17.621483 C95.331882,17.621483 95.219752,18.4475789 95.219752,18.4475789 L95.219752,28.7737781 C95.219752,29.1163326 94.807004,29.1868261 94.807004,29.1868261 L92.605682,29.1868261 C92.29956,29.1868261 92.192934,28.7737781 92.192934,28.7737781 L92.192934,18.4475789 C92.192934,17.7928979 91.367438,17.621483 91.367438,17.621483 L89.303698,17.621483 C88.673982,17.621483 88.615784,18.4475789 88.615784,18.4475789 L88.615784,28.7737781 C88.615784,29.2157395 88.203036,29.1868261 88.203036,29.1868261 L86.001714,29.1868261 C85.589378,29.1868261 85.588966,28.7737781 85.588966,28.7737781 L85.588966,15.6939258 C85.588966,14.9362582 86.689627,14.5924646 86.689627,14.5924646 L100.447894,14.5924646 C101.55227,14.5924646 101.82372,15.9692911 101.82372,15.9692911 L101.82372,28.7737781 C101.82372,29.249334 101.410972,29.1868261 101.410972,29.1868261 Z M81.461486,23.4041546 L72.93136,23.4041546 L72.93136,25.4693944 C72.93136,26.2135691 73.894439,26.433173 73.894439,26.433173 L80.773572,26.433173 C81.263092,26.433173 81.599068,26.846221 81.599068,26.846221 C81.599068,26.846221 82.199204,28.0951403 82.424564,28.6360955 C82.649787,29.1770506 82.011816,29.1868261 82.011816,29.1868261 L71.693117,29.1868261 C70.45047,29.1868261 70.179707,27.6723169 70.179707,27.6723169 L70.179707,15.9692911 C70.179707,15.2962983 71.142786,15.0055125 71.142786,15.0055125 L81.461486,15.0055125 C82.498446,15.0055125 82.69973,16.2446564 82.69973,16.2446564 L82.69973,22.1650107 C82.69973,23.1638983 81.461486,23.4041546 81.461486,23.4041546 Z M79.948076,18.4475789 C79.948076,18.4475789 79.861399,17.7591657 79.260163,17.7591657 L73.619274,17.7591657 C73.619274,17.7591657 72.93136,17.9437981 72.93136,18.4475789 L72.93136,19.9620882 C72.93136,19.9620882 72.951172,20.6505014 73.619274,20.6505014 L79.260163,20.6505014 C79.260163,20.6505014 79.948076,20.4804634 79.948076,19.8244055 L79.948076,18.4475789 Z M68.115967,29.1868261 L62.887826,29.1868261 C62.887826,29.1868261 59.061927,29.0061865 58.760346,25.1940291 C58.748239,21.2790228 58.760346,9.0851583 58.760346,9.0851583 L61.236834,9.0851583 C61.236834,9.0851583 62.06233,9.0701509 62.06233,9.9112543 L62.06233,24.3679331 C62.06233,24.3679331 62.350015,25.5638447 63.988487,26.020125 C65.8398,26.0107626 66.18981,26.020125 66.18981,26.020125 C66.18981,26.020125 66.907303,25.790195 67.428054,26.7085383 C67.948804,27.6268816 68.528715,28.6360955 68.528715,28.6360955 C68.528715,28.6360955 68.61154,29.1868261 68.115967,29.1868261 Z M41.562513,28.3607302 L41.562513,10.1866196 C41.562513,9.380763 42.250426,9.222841 42.250426,9.222841 L55.183197,9.222841 C55.906469,9.222841 55.595945,10.0489369 55.595945,10.0489369 C55.595945,10.0489369 55.192827,11.166094 54.908031,11.7011288 C54.623235,12.2361636 54.082535,12.2518594 54.082535,12.2518594 L45.689993,12.2518594 C44.908523,12.2518594 44.864497,12.9402727 44.864497,12.9402727 L44.864497,17.4838003 L54.357701,17.4838003 C54.914635,17.4838003 54.632866,18.1722136 54.632866,18.1722136 C54.632866,18.1722136 53.921839,19.6889258 53.669787,20.0997708 C53.417736,20.5106159 52.844291,20.5128188 52.844291,20.5128188 L44.864497,20.5128188 L44.864497,25.3317117 C44.864497,25.988458 45.55241,26.1578077 45.55241,26.1578077 L54.357701,26.1578077 C54.996222,26.1578077 55.183197,26.5708556 55.183197,26.5708556 C55.183197,26.5708556 56.055196,27.9323994 56.421441,28.4984128 C56.787823,29.0644262 56.283858,29.1868261 56.283858,29.1868261 L42.388009,29.1868261 C41.814151,29.1868261 41.562513,28.3607302 41.562513,28.3607302 Z M33.416502,27.2175511 C33.407008,28.7945682 32.587841,29.1463474 32.587841,29.1463474 C32.587841,29.1463474 18.4520478,37.3145087 17.5329956,37.8262751 C16.622336,38.2171561 16.0136703,37.8262751 16.0136703,37.8262751 C16.0136703,37.8262751 1.2225706,29.2479572 0.6826962,28.8708444 C0.1426843,28.4937316 0.1301643,27.9063774 0.1301643,27.9063774 C0.1301643,27.9063774 0.1450232,10.9199174 0.1301643,10.1333364 C0.1153053,9.3466177 1.0969576,8.7555461 1.0969576,8.7555461 L15.8755373,0.2134387 C16.7853714,-0.2667984 17.6711286,0.2134387 17.6711286,0.2134387 C17.6711286,0.2134387 30.726623,7.8020937 32.173442,8.6177257 C33.591507,9.2919577 33.416502,10.6843424 33.416502,10.6843424 C33.416502,10.6843424 33.425307,25.7519192 33.416502,27.2175511 Z M27.5160105,10.1691339 C24.4900173,8.4274483 17.3615842,4.2971063 17.3615842,4.2971063 C17.3615842,4.2971063 16.6661039,3.9212326 15.9517747,4.2971063 L4.3487406,10.98215 C4.3487406,10.98215 3.5780025,11.4449014 3.589697,12.0604805 C3.6013915,12.6760597 3.589697,25.9698708 3.589697,25.9698708 C3.589697,25.9698708 3.5994654,26.4295932 4.0234951,26.7246472 C4.4473873,27.0197011 16.0601898,33.7332451 16.0601898,33.7332451 C16.0601898,33.7332451 16.538152,34.0391759 17.2530315,33.7332451 C17.9746526,33.3327262 29.0730335,26.9402582 29.0730335,26.9402582 C29.0730335,26.9402582 29.7162325,26.6648929 29.7236619,25.4307056 C29.7257257,25.0747959 29.7265512,23.6932881 29.7266887,21.9575229 L16.6600502,29.8752394 L16.6600502,26.846221 C16.6600502,25.6021205 17.6231289,24.7809811 17.6231289,24.7809811 L29.1807607,17.8165793 C29.6168978,17.3611251 29.7068768,16.6315447 29.7254505,16.3556287 C29.7250378,15.0904627 29.7244874,13.9852841 29.7240747,13.2851678 L16.6600502,21.2012321 L16.6600502,18.034531 C16.6600502,16.7904305 17.4855462,16.2446564 17.4855462,16.2446564 L27.5160105,10.1691339 Z" id="Shape-Copy" fill="#409EFF" fill-rule="nonzero"></path>
        </g>
    </g>
</svg>